<?xml version="1.0" encoding="utf-8"?>
<!-- Svg Vector Icons : http://www.onlinewebfonts.com/icon -->
<!DOCTYPE svg>
<svg fill="#ffffff" version="1.1" xmlns="http://www.w3.org/2000/svg"
    xmlns:xlink="http://www.w3.org/1999/xlink"
    x="0px" y="0px" viewBox="0 0 256 256" enable-background="new 0 0 256 256" xml:space="preserve">
<metadata> Svg Vector Icons : http://www.onlinewebfonts.com/icon </metadata>
<g><g><g><path d="M123.3,11.4c-3.2,1.7-5.5,4.7-6.5,8.6c-0.9,3.6-0.9,5.2,0,8.5c0.9,3.1,2.6,5.8,4.3,7.2c1.2,1,1.3,1.2,0.7,2.7c-0.3,0.9-0.8,1.9-1.1,2.2c-0.3,0.2-4.9,1.6-10.1,2.9l-9.5,2.3l-0.3,2.2c-0.1,1.2-0.5,8-0.8,15.2c-0.3,7.2-0.8,16-1,19.6l-0.5,6.5l4.2,6.8l4.2,6.8l-0.6,2.7c-0.8,3.9-0.7,12.2,0.2,16.6c0.9,4.3,2.6,8.7,4.4,11.5c1.5,2.2,1.5,2.4,0.9,15.3c-0.3,7.5,0.1,10.7,2.6,17.5c0.5,1.5,1.1,4.6,1.3,6.9l0.3,4.3h-5.7c-4.5,0-6,0.1-6.8,0.8c-2.4,1.7-2.5,2.5-2.5,25.4v21.4h27.2h27.2v-21.4c0-23-0.1-23.7-2.5-25.4c-0.9-0.6-2.4-0.8-7.9-0.8h-6.8l0.3-4.2c0.2-2.9,0.8-5.3,1.8-7.9c2.2-5.5,3-10.9,2.5-17.3c-0.8-10.8-0.7-11.7,1.6-16.3c2.9-5.8,4-10.6,4.1-17.5c0-3.1,0-6.5-0.2-7.6c-0.3-1.8-0.2-2.3,4.5-9.8l4.9-7.9l-1.1-19.5c-0.5-10.8-1.2-20.5-1.4-21.7l-0.3-2.1l-9.2-2.4c-5-1.4-9.5-2.7-9.9-3c-0.4-0.3-1-1.3-1.4-2.2c-0.6-1.6-0.6-1.7,0.8-2.8c0.8-0.7,2.2-2.7,3.1-4.5c1.4-2.8,1.6-3.7,1.6-6.9c0-5.9-2.6-10.6-7.1-12.8C129.6,9.6,126.7,9.6,123.3,11.4z M145.4,204.4c1.4,1.9,1.3,5.3-0.2,6.9l-1.1,1.2h-15.9c-15.8,0-15.9,0-16.9-1.1c-1.9-2.1-1.8-5.5,0.2-7.8c0.7-0.8,2-0.8,16.8-0.7l16,0.1L145.4,204.4z"/></g></g></g>
</svg>